# xmcd
#
# Track frame offsets: 
#        150
#        17294
#        46409
#        64095
#        87697
#        110315
#        133964
#        155545
#        180092
#        201097
#
# Disc length: 2983 seconds
#
# Revision: 0
# Processed by: cddbd v1.5.2PL0 Copyright (c) Steve Scherf et al.
# Submitted via: ExactAudioCopy v1.0b3
#
DISCID=7e0ba50a
DTITLE=Die Strottern and Jazzerwerkstatt Wien - Elegant
DYEAR=1900
DGENRE=
TTITLE0=wia manst du des?
TTITLE1=gemeiner opal 3000
TTITLE2=eh-musik
TTITLE3=humanisten gstanzln
TTITLE4=elegant
TTITLE5=wean, du schloftst
TTITLE6=wia r e no quoat hob auf dii
TTITLE7=gstuabm
TTITLE8=nua ans
TTITLE9=personalienwalzer - Heut kommen d'Engerl auf Urlaub nach Wien
EXTD=
EXTT0=
EXTT1=
EXTT2=
EXTT3=
EXTT4=
EXTT5=
EXTT6=
EXTT7=
EXTT8=
EXTT9=
PLAYORDER=
